<mxfile host="app.diagrams.net" modified="2021-05-09T15:58:16.007Z" agent="5.0 (X11)" etag="9UHPEZOb7ae4sS4IGjCV" version="14.6.11" type="github">
  <diagram id="CO_pN0Cs970UxT6g70PK" name="Page-1">
    <mxGraphModel dx="696" dy="389" grid="1" gridSize="10" guides="1" tooltips="1" connect="1" arrows="1" fold="1" page="1" pageScale="1" pageWidth="800" pageHeight="200" math="0" shadow="0">
      <root>
        <mxCell id="0" />
        <mxCell id="1" parent="0" />
        <mxCell id="nteknvXBESZi2XAdVB8K-6" value="" style="edgeStyle=orthogonalEdgeStyle;rounded=0;orthogonalLoop=1;jettySize=auto;html=1;" edge="1" parent="1" source="nteknvXBESZi2XAdVB8K-1" target="nteknvXBESZi2XAdVB8K-4">
          <mxGeometry relative="1" as="geometry" />
        </mxCell>
        <mxCell id="nteknvXBESZi2XAdVB8K-7" style="edgeStyle=orthogonalEdgeStyle;rounded=0;orthogonalLoop=1;jettySize=auto;html=1;" edge="1" parent="1" source="nteknvXBESZi2XAdVB8K-1" target="nteknvXBESZi2XAdVB8K-5">
          <mxGeometry relative="1" as="geometry" />
        </mxCell>
        <mxCell id="nteknvXBESZi2XAdVB8K-8" style="edgeStyle=orthogonalEdgeStyle;rounded=0;orthogonalLoop=1;jettySize=auto;html=1;" edge="1" parent="1" source="nteknvXBESZi2XAdVB8K-1" target="nteknvXBESZi2XAdVB8K-3">
          <mxGeometry relative="1" as="geometry" />
        </mxCell>
        <mxCell id="nteknvXBESZi2XAdVB8K-1" value="Enzyme Api" style="rounded=0;whiteSpace=wrap;html=1;fillColor=#fff2cc;strokeColor=#d6b656;gradientColor=#ffffff;" vertex="1" parent="1">
          <mxGeometry x="340" width="120" height="40" as="geometry" />
        </mxCell>
        <mxCell id="nteknvXBESZi2XAdVB8K-3" value="Static" style="rounded=0;whiteSpace=wrap;html=1;fillColor=#d5e8d4;strokeColor=none;" vertex="1" parent="1">
          <mxGeometry x="180" y="90" width="120" height="40" as="geometry" />
        </mxCell>
        <mxCell id="nteknvXBESZi2XAdVB8K-4" value="Shallow" style="rounded=0;whiteSpace=wrap;html=1;fillColor=#f8cecc;strokeColor=none;" vertex="1" parent="1">
          <mxGeometry x="340" y="90" width="120" height="40" as="geometry" />
        </mxCell>
        <mxCell id="nteknvXBESZi2XAdVB8K-5" value="Full DOM" style="rounded=0;whiteSpace=wrap;html=1;fillColor=#e1d5e7;strokeColor=none;" vertex="1" parent="1">
          <mxGeometry x="490" y="90" width="120" height="40" as="geometry" />
        </mxCell>
        <mxCell id="nteknvXBESZi2XAdVB8K-18" style="edgeStyle=orthogonalEdgeStyle;rounded=0;orthogonalLoop=1;jettySize=auto;html=1;exitX=0.5;exitY=0;exitDx=0;exitDy=0;entryX=0.5;entryY=1;entryDx=0;entryDy=0;" edge="1" parent="1" source="nteknvXBESZi2XAdVB8K-11" target="nteknvXBESZi2XAdVB8K-3">
          <mxGeometry relative="1" as="geometry" />
        </mxCell>
        <mxCell id="nteknvXBESZi2XAdVB8K-11" value="&lt;font style=&quot;font-size: 10px&quot;&gt;Render the given component and return plain HTML&lt;/font&gt;" style="text;html=1;fillColor=#d5e8d4;align=center;verticalAlign=middle;whiteSpace=wrap;rounded=0;gradientColor=#ffffff;" vertex="1" parent="1">
          <mxGeometry x="180" y="140" width="120" height="60" as="geometry" />
        </mxCell>
        <mxCell id="nteknvXBESZi2XAdVB8K-19" style="edgeStyle=orthogonalEdgeStyle;rounded=0;orthogonalLoop=1;jettySize=auto;html=1;exitX=0.5;exitY=0;exitDx=0;exitDy=0;entryX=0.5;entryY=1;entryDx=0;entryDy=0;" edge="1" parent="1" source="nteknvXBESZi2XAdVB8K-15" target="nteknvXBESZi2XAdVB8K-4">
          <mxGeometry relative="1" as="geometry" />
        </mxCell>
        <mxCell id="nteknvXBESZi2XAdVB8K-15" value="&lt;font style=&quot;font-size: 10px&quot;&gt;Render the given component and return plain HTML&lt;/font&gt;" style="text;html=1;fillColor=#f8cecc;align=center;verticalAlign=middle;whiteSpace=wrap;rounded=0;gradientColor=#ffffff;" vertex="1" parent="1">
          <mxGeometry x="340" y="140" width="120" height="60" as="geometry" />
        </mxCell>
        <mxCell id="nteknvXBESZi2XAdVB8K-20" style="edgeStyle=orthogonalEdgeStyle;rounded=0;orthogonalLoop=1;jettySize=auto;html=1;exitX=0.5;exitY=0;exitDx=0;exitDy=0;entryX=0.5;entryY=1;entryDx=0;entryDy=0;" edge="1" parent="1" source="nteknvXBESZi2XAdVB8K-17" target="nteknvXBESZi2XAdVB8K-5">
          <mxGeometry relative="1" as="geometry" />
        </mxCell>
        <mxCell id="nteknvXBESZi2XAdVB8K-17" value="&lt;font style=&quot;font-size: 10px&quot;&gt;Render the component and all of children + let us modify it afterwards&lt;/font&gt;" style="text;html=1;fillColor=#e1d5e7;align=center;verticalAlign=middle;whiteSpace=wrap;rounded=0;gradientColor=#ffffff;" vertex="1" parent="1">
          <mxGeometry x="490" y="140" width="120" height="60" as="geometry" />
        </mxCell>
      </root>
    </mxGraphModel>
  </diagram>
</mxfile>
